<svg xmlns="http://www.w3.org/2000/svg" width="155" height="155">
    <defs>
        <filter id="Rectangle_514" x="0" y="0" width="155" height="155" filterUnits="userSpaceOnUse">
            <feOffset/>
            <feGaussianBlur stdDeviation="10.5" result="blur"/>
            <feFlood flood-opacity=".122"/>
            <feComposite operator="in" in2="blur"/>
            <feComposite in="SourceGraphic"/>
        </filter>
        <style>
            .cls-2{fill:#813772}
        </style>
    </defs>
    <g id="Group_5762" data-name="Group 5762" transform="translate(-745 -789)">
        <g transform="translate(745 789)" style="filter:url(#Rectangle_514)">
            <rect id="Rectangle_514-2" data-name="Rectangle 514" width="91" height="91" rx="10" transform="translate(32 32)" style="fill:#fff;stroke:transparent;stroke-miterlimit:10"/>
        </g>
        <g id="Alumni" transform="translate(798 851)">
            <path id="Path_1134" data-name="Path 1134" class="cls-2" d="M12.09 54.7h-.159c-.319.159-5.047 1.859-6.056 3.294C4.812 59.481 4.6 63.306 4.6 63.306s2.55 1.222 8.606 1.487A57.512 57.512 0 0 1 12.09 54.7z" transform="translate(-4.6 -37.039)"/>
            <path id="Path_1135" data-name="Path 1135" class="cls-2" d="M52.2 69.184c6.906-.212 9.3-1.647 9.3-1.647s-.478-4.409-1.381-5.684c-.85-1.328-6.481-3.453-6.481-3.453h-.212A69.2 69.2 0 0 1 52.2 69.184z" transform="translate(-26.914 -38.774)"/>
            <path id="Path_1136" data-name="Path 1136" class="cls-2" d="M35.275 58.3h-.159c-.319.159-5.472 2.019-6.534 3.559-1.116 1.647-1.381 5.684-1.381 5.684s2.709 1.328 9.243 1.594A78.4 78.4 0 0 1 35.275 58.3z" transform="translate(-15.194 -38.727)"/>
            <path id="Path_1137" data-name="Path 1137" class="cls-2" d="M49.236 31.653c-.106-2.019-.425-8.606-4.037-7.384-1.116-1.966-4.3-1.912-6.109-1.062a7.371 7.371 0 0 0-3.559 4.409c-1.381 3.878-1.169 8.287-.9 12.324 2.178.531 11.474.691 14.5.212-.001-.903.269-4.781.105-8.499zm-1.381 1.487a1.765 1.765 0 0 1-1.328 1.275c-.319 2.178-1.647 5.153-4.25 5.153s-3.931-2.975-4.25-5.153a1.311 1.311 0 0 1-1.116-.85c1.328-.372 5.578-1.594 7.118-5.1.531 1.487 1.912 4.409 3.931 3.878a5.524 5.524 0 0 1-.105.797z" transform="translate(-18.585 -22.013)"/>
            <path id="Path_1138" data-name="Path 1138" class="cls-2" d="M22.187 31.6c-1.434 3.24-5.365 4.409-6.587 4.728a1.372 1.372 0 0 0 1.062.8c.319 2.019 1.541 4.781 3.931 4.781s3.612-2.762 3.931-4.781h.053c.053-.691.106-1.328.212-1.966-1.327-.481-2.177-2.446-2.602-3.562z" transform="translate(-9.757 -26.21)"/>
            <path id="Path_1139" data-name="Path 1139" class="cls-2" d="M34.806 38.5c-.053.212-.053.425-.106.691a1.688 1.688 0 0 0 .106-.691z" transform="translate(-18.71 -29.445)"/>
            <path id="Path_1140" data-name="Path 1140" class="cls-2" d="M22.493 32.463c-.372 2.019-1.594 4.781-3.984 4.781s-3.612-2.762-3.931-4.781c-.478 0-.8-.372-1.062-.8 1.222-.372 5.153-1.487 6.587-4.728.425 1.116 1.275 3.028 2.6 3.559a18.086 18.086 0 0 1 .9-3.719c.212-.531.425-1.009.637-1.487-.531-1.594-1.434-2.762-3.028-2.231-1.062-1.806-3.984-1.806-5.684-1.009a7.045 7.045 0 0 0-3.347 4.144c-1.275 3.612-1.116 7.7-.85 11.474 1.594.425 7.437.584 11.156.372-.047-1.91-.1-3.769.006-5.575z" transform="translate(-7.672 -21.495)"/>
            <path id="Path_1141" data-name="Path 1141" class="cls-2" d="m31.159 55.816-.053-.584-1.328-.532h-.212a92.546 92.546 0 0 1-.266 4.2 17.42 17.42 0 0 1 4.356-2.444c-.159-.053-.266-.159-.425-.212-.531-.057-2.072-.428-2.072-.428z" transform="translate(-16.179 -37.039)"/>
            <path id="Path_1142" data-name="Path 1142" class="cls-2" d="M78.53 46.18c-.212-1.541-.372-3.612-1.328-4.834-1.062-1.381-3.294-2.231-4.887-2.922-.956 3.081-1.912 6.162-2.869 9.3l-.85-7.171.637-.9a4.314 4.314 0 0 0-.478-.9A9.869 9.869 0 0 0 72 37.575a5.883 5.883 0 0 1-.212-1.912c.637-.691.691-2.178.85-3.028a4.4 4.4 0 0 0 1.328-3.4c-.053-.478-.319-1.541-.956-1.487.266-1.541.584-4.3-1.434-4.834a2.922 2.922 0 0 0-1.169-.106c.053-.9-1.434-1.222-2.019-1.275a5.764 5.764 0 0 0-4.52 1.167 5.841 5.841 0 0 0-1.7 5.1.734.734 0 0 0-.584.319c.159 1.116.212 2.231.266 2.922v.053a3.507 3.507 0 0 0 .053.744c.212.319.425.584.637.85.159.85.266 2.337.85 3.028a6.548 6.548 0 0 1-.106 1.541.189.189 0 0 1 .106.159v.053a10.062 10.062 0 0 0 3.4 1.222 4.314 4.314 0 0 0-.478.9c.212.319.478.637.691.956-.319 2.337-.584 4.728-.9 7.065-.956-3.134-1.966-6.268-2.922-9.4a12.763 12.763 0 0 0-1.222.584v1.7a25.785 25.785 0 0 1-2.656.319c1.912.85 4.409 2.072 5.1 3.081.85 1.222 1.328 4.3 1.487 5.684 4.619.478 9.51-.531 12.64-3.4z" transform="translate(-30.242 -21.454)"/>
        </g>
    </g>
</svg>
