<svg xmlns="http://www.w3.org/2000/svg" width="155" height="155">
    <defs>
        <filter id="a" x="0" y="0" width="155" height="155" filterUnits="userSpaceOnUse">
            <feOffset/>
            <feGaussianBlur stdDeviation="10.5" result="blur"/>
            <feFlood flood-opacity=".122"/>
            <feComposite operator="in" in2="blur"/>
            <feComposite in="SourceGraphic"/>
        </filter>
    </defs>
    <g data-name="Group 5760">
        <g style="filter:url(#a)">
            <rect data-name="Rectangle 512" width="91" height="91" rx="10" transform="translate(32 32)" style="fill:#fff;stroke:transparent;stroke-miterlimit:10"/>
        </g>
        <g data-name="Group 5758">
            <path data-name="Path 1178" d="M978.465 7257.36v-11.56h44.2v29.564h-16.95a.266.266 0 0 1 0-.532h16.419v-28.5H979v10.964a22.7 22.7 0 0 1 4.892.126c1.795.233 1.876 2.5-.125 2.511a28.765 28.765 0 0 0-3.251.037 1.784 1.784 0 0 1 .369.279 17.612 17.612 0 0 1 2.445 2.858 2.445 2.445 0 0 1 .558 1.7 2.827 2.827 0 0 1-.7 1.364 2.08 2.08 0 0 1-.375 2.519 2.878 2.878 0 0 1-1.013 2.314 1.1 1.1 0 0 1-1.915-.883 5.219 5.219 0 0 1-.886.457v4.256h16.348a.266.266 0 0 1 0 .532H980.3a17.845 17.845 0 0 1-.177 2.909.265.265 0 0 1-.521-.1 17.329 17.329 0 0 0 .168-2.812h-1.31v-2.815a3.159 3.159 0 0 1-.344.52.265.265 0 0 1-.407-.339 3.864 3.864 0 0 0 .742-1.98 3 3 0 0 1-.449.075.266.266 0 0 1-.044-.53 4.128 4.128 0 0 0 2.411-1.281c.211-.277.667.048.455.325a2.535 2.535 0 0 1-.269.3.377.377 0 0 0 .171.077.159.159 0 0 1-.081.308.922.922 0 0 1-.173-.065c-.286.677.395 1.278.973.635a2.382 2.382 0 0 0 .818-1.987 2.548 2.548 0 0 0-.828-1.2c-.958-.885-1.352-.62-2.48-.243a32.6 32.6 0 0 0-2.22.827.265.265 0 0 1-.21-.486 33.307 33.307 0 0 1 2.261-.844c1.314-.439 1.877-.689 3.008.355a4.119 4.119 0 0 1 .832 1.052 1.535 1.535 0 0 0 .1-1.6 11.053 11.053 0 0 0-1.81-2.5c-.7-.786-.72-.777-1.779-.275-.939.444-2.579 1.221-3.439 1.535a.265.265 0 0 1-.181-.5c.833-.3 2.461-1.075 3.393-1.516 1.273-.6 1.52-.583 2.4.4a13.85 13.85 0 0 1 1.585 2.046 2.049 2.049 0 0 0 .453-.924 1.988 1.988 0 0 0-.473-1.334 17.181 17.181 0 0 0-2.374-2.775c-1.164-1.129-4.475 1.715-5.786 2.516a.265.265 0 0 1-.276-.452c1.369-.836 3.5-2.595 4.953-3.04a15.912 15.912 0 0 1 4.358-.249c1.352-.006 1.189-1.309.059-1.456a22.156 22.156 0 0 0-4.892-.113c-2.318.2-4.327 2.785-5.83 4.417-1.134 1.231-1.045 1.63-.9 2.319a3.886 3.886 0 0 1 .139 1.579 2.5 2.5 0 0 0-.025 1.431 8.962 8.962 0 0 1 .5 1.646c.035.3.084 1.052.149 1.342.331 1.458 1.913 2.93 2.184 4.392a.265.265 0 0 1-.521.1 3.056 3.056 0 0 0-.3-.813 26.174 26.174 0 0 1-.061 4 .265.265 0 0 1-.529-.031 20.754 20.754 0 0 0 .012-4.292c-.244-1.395-1.043-2.076-1.306-3.234-.071-.315-.123-1.084-.16-1.4a9.1 9.1 0 0 0-.473-1.542 3.012 3.012 0 0 1 .01-1.7 3.517 3.517 0 0 0-.139-1.36c-.179-.827-.3-1.356 1.024-2.791 1.548-1.664 3.473-4.114 5.774-4.533zm1.875-8.269a.159.159 0 0 1 .319 0v6.123a.159.159 0 0 1-.319 0zm40.006 0a.159.159 0 0 1 .319 0v23.059a.159.159 0 0 1-.319 0zm-18.014 31.236a.265.265 0 0 1 .43-.309l1.814 2.518.893-1.732 2.076-.241-2-2.76a.266.266 0 0 1 .43-.312l2.535 3.494-2.7.313-1.159 2.248zm-3.812-.309a.265.265 0 0 1 .43.309l-2.319 3.219-1.159-2.248-2.7-.313 2.535-3.494a.266.266 0 0 1 .43.312l-2 2.76 2.076.241.893 1.732zm4.129-4.921a.159.159 0 0 1 .319 0 2.4 2.4 0 0 1-2.4 2.4.159.159 0 0 1 0-.319 2.085 2.085 0 0 0 2.081-2.078zm.623-2.708a3.83 3.83 0 1 1-5.417 0 3.845 3.845 0 0 1 5.416.001zm-.376.375a3.3 3.3 0 1 0 0 4.665 3.312 3.312 0 0 0 .004-4.664zm-14.077-17.286a.266.266 0 0 1 0-.532h23.49a.266.266 0 0 1 0 .532zm4.955-3.562a.266.266 0 0 1 0-.532h13.579a.266.266 0 0 1 0 .532z" transform="translate(-919.575 -7186.799)" style="fill:none;stroke:#813772"/>
        </g>
    </g>
</svg>
