<svg xmlns="http://www.w3.org/2000/svg" width="155" height="155">
    <defs>
        <filter id="Rectangle_517" x="0" y="0" width="155" height="155" filterUnits="userSpaceOnUse">
            <feOffset/>
            <feGaussianBlur stdDeviation="10.5" result="blur"/>
            <feFlood flood-opacity=".122"/>
            <feComposite operator="in" in2="blur"/>
            <feComposite in="SourceGraphic"/>
        </filter>
        <style>
            .cls-2{fill:#813772}
        </style>
    </defs>
    <g id="Group_5765" data-name="Group 5765" transform="translate(-1578 -789)">
        <g transform="translate(1578 789)" style="filter:url(#Rectangle_517)">
            <rect id="Rectangle_517-2" data-name="Rectangle 517" width="91" height="91" rx="10" transform="translate(32 32)" style="fill:#fff;stroke:transparent;stroke-miterlimit:10"/>
        </g>
        <g id="Group_5759" data-name="Group 5759" transform="translate(1635 846)">
            <path id="Path_1171" data-name="Path 1171" class="cls-2" d="M15.005 21.531a3.445 3.445 0 1 0-3.445-3.438 3.445 3.445 0 0 0 3.445 3.438zm0-5.48a2.042 2.042 0 1 1-2.042 2.042 2.042 2.042 0 0 1 2.042-2.042z" transform="translate(-4.95 -6.121)"/>
            <path id="Path_1172" data-name="Path 1172" class="cls-2" d="M20.412 37.269a3.509 3.509 0 0 0 .575-1.958 3.565 3.565 0 0 0-3.509-3.565 3.508 3.508 0 0 0-1.775.5v-2.155h24.8a.7.7 0 0 0 .7-.7V3.2a.7.7 0 0 0-.7-.7H5.192a.7.7 0 0 0-.7.7v26.189a.7.7 0 0 0 .7.7H8.75V32.2a3.466 3.466 0 0 0-1.9-.575 3.551 3.551 0 0 0-2.97 5.518 3.894 3.894 0 0 0-1.74 3.228v2.688h1.4v-2.7a2.491 2.491 0 0 1 1.36-2.213l.084.049.211.112a1.628 1.628 0 0 0 .274.126 2.435 2.435 0 0 0 .316.119H5.9a3.6 3.6 0 0 0 .947.14 3.544 3.544 0 0 0 .94-.14h.119a2.533 2.533 0 0 0 .323-.119 1.854 1.854 0 0 0 .267-.126l.211-.112a.1.1 0 0 0 .084-.049 2.491 2.491 0 0 1 1.354 2.21v2.7h1.4v-2.7a3.88 3.88 0 0 0-1.74-3.228 3.508 3.508 0 0 0 .589-1.852h3.508a3.509 3.509 0 0 0 .6 1.958 3.887 3.887 0 0 0-1.741 3.227V43.2h1.4v-2.7a2.484 2.484 0 0 1 1.347-2.21.1.1 0 0 1 .084.049l.211.112a2.379 2.379 0 0 0 .274.126 2.9 2.9 0 0 0 .316.119l.126.035a3.221 3.221 0 0 0 1.881 0l.126-.035a2.9 2.9 0 0 0 .316-.119 1.853 1.853 0 0 0 .267-.126l.218-.112.084-.049a2.484 2.484 0 0 1 1.347 2.21v2.7h1.4v-2.7a3.887 3.887 0 0 0-1.746-3.231zm-2.933-4.119a2.161 2.161 0 0 1 1.4 3.8 2.2 2.2 0 0 1-2.807 0 2.161 2.161 0 0 1 1.4-3.8zM5.894 28.687V3.9h33.913v24.787h-24.1v-1.943a1.965 1.965 0 0 0 .414.049 1.768 1.768 0 0 0 1.761-1.768v-4.21a2.519 2.519 0 0 0-2.512-2.526h-.316a.6.6 0 0 0-.161 0H9.424a3.13 3.13 0 0 0-3.137 3.137v3.656A1.923 1.923 0 0 0 8.21 27a2.049 2.049 0 0 0 .512-.07v1.712zm.954 4.336a2.154 2.154 0 0 1 1.958 1.27 2.105 2.105 0 0 1 .189.87 2.161 2.161 0 0 1-.765 1.642 2.21 2.21 0 0 1-2.105.372 1.965 1.965 0 0 1-.653-.379 2.105 2.105 0 0 1-.765-1.635 2.161 2.161 0 0 1 2.14-2.14zm6.112.863v-4.967a.7.7 0 0 0-1.4 0v4.947h-1.4v-12.02a.7.7 0 1 0-1.4 0v3.277a.512.512 0 0 1-.512.512.526.526 0 0 1-.519-.512v-3.649a1.726 1.726 0 0 1 1.733-1.733h5.614a.618.618 0 0 0 .168 0h.14a1.095 1.095 0 0 1 1.109 1.109v4.21a.365.365 0 1 1-.7 0v-3.214a.7.7 0 0 0-.7-.7.7.7 0 0 0-.7.7l-.084 7.55-.049 4.386-.049.1z" transform="translate(-2.14 -2.5)"/>
            <path id="Path_1173" data-name="Path 1173" class="cls-2" d="M41.047 49.508a3.558 3.558 0 1 0-6.533-1.958 3.509 3.509 0 0 0 .6 1.958 3.88 3.88 0 0 0-1.741 3.227v2.7h1.4v-2.7a2.5 2.5 0 0 1 1.354-2.21l.091.049a1.888 1.888 0 0 0 .2.112l.274.126a2.9 2.9 0 0 0 .316.119h.133a3.2 3.2 0 0 0 1.874 0h.126a2.9 2.9 0 0 0 .316-.119 1.936 1.936 0 0 0 .274-.126l.211-.112.084-.049a2.484 2.484 0 0 1 1.347 2.21v2.7h1.4v-2.7a3.887 3.887 0 0 0-1.726-3.227zm-2.968-4.1a2.154 2.154 0 0 1 1.4 3.8 2.21 2.21 0 0 1-2.105.372 2.553 2.553 0 0 1-.344-.154 2.511 2.511 0 0 1-.316-.218 2.105 2.105 0 0 1-.8-1.656 2.161 2.161 0 0 1 2.164-2.152z" transform="translate(-11.456 -14.88)"/>
            <path id="Path_1174" data-name="Path 1174" class="cls-2" d="M56.2 49.5a3.508 3.508 0 0 0 .6-1.958 3.565 3.565 0 1 0-6.54 1.958 3.894 3.894 0 0 0-1.74 3.228v2.7h1.4v-2.7a2.491 2.491 0 0 1 1.354-2.21l.084.049.211.112a1.852 1.852 0 0 0 .267.126 3 3 0 0 0 .323.119h.119a3.6 3.6 0 0 0 .947.14 3.544 3.544 0 0 0 .94-.14h.119a2.532 2.532 0 0 0 .323-.119 1.853 1.853 0 0 0 .267-.126 2 2 0 0 0 .211-.112.1.1 0 0 0 .084-.049 2.491 2.491 0 0 1 1.354 2.21v2.7h1.4v-2.7A3.88 3.88 0 0 0 56.2 49.5zm-2.961-4.1a2.161 2.161 0 0 1 1.4 3.8 2.224 2.224 0 0 1-2.105.372 1.965 1.965 0 0 1-.653-.379 2.105 2.105 0 0 1-.765-1.635 2.161 2.161 0 0 1 2.12-2.161z" transform="translate(-15.975 -14.867)"/>
            <path id="Path_1175" data-name="Path 1175" class="cls-2" d="M22.674 16.709a.7.7 0 0 0 .463.175h.049l8.462-.554a.7.7 0 0 0 .66-.751L31.8 7.811a.7.7 0 0 0-.744-.653l-1.607.105-.049-.7a.7.7 0 0 0-.744-.653l-3.873.246a.7.7 0 0 0-.653.744l.049.7-1.607.105a.7.7 0 0 0-.66.744l.519 7.761a.7.7 0 0 0 .243.499zm5.347-9.333.1 1.4-2.449.161-.049-.7-.049-.7zm-3.754 1.663.049.7a.7.7 0 0 0 .239.477.561.561 0 0 0 .225.133h.077a.652.652 0 0 0 .154 0h.049l3.852-.253a.66.66 0 0 0 .26-.077.7.7 0 0 0 .358-.4.7.7 0 0 0 0-.274l-.049-.7.912-.042.421 6.364-7.059.463-.379-6.357z" transform="translate(-8.037 -3.517)"/>
            <path id="Path_1176" data-name="Path 1176" class="cls-2" d="m38.269 18.064 8.259 1.944a.653.653 0 0 0 .161 0 .7.7 0 0 0 .7-.54l1.754-7.557a.7.7 0 0 0-.526-.842l-1.576-.369.159-.7a.7.7 0 0 0-.526-.842l-3.733-.877a.662.662 0 0 0-.814.5l-.161.7-1.6-.351a.7.7 0 0 0-.842.519L37.75 17.2a.7.7 0 0 0 .519.863zm7.424-7.719-.323 1.4-2.386-.561.161-.7.161-.7zm-4.968.309.884.211-.182.723a.7.7 0 0 0 .274.7.821.821 0 0 0 .253.112l3.754.884h.3a.7.7 0 0 0 .225-.084 1.045 1.045 0 0 0 .1-.084.652.652 0 0 0 .1-.1.7.7 0 0 0 .119-.253l.161-.7.884.211-1.453 6.2-6.9-1.614z" transform="translate(-12.756 -4.219)"/>
            <path id="Path_1177" data-name="Path 1177" class="cls-2" d="M30.265 23.27a.7.7 0 0 0-.7.7v.7l-1.614-.035a.7.7 0 0 0-.7.7l-.151 7.787a.7.7 0 0 0 .7.7l8.476.168a.7.7 0 0 0 .7-.7l.154-7.775a.66.66 0 0 0-.2-.5.653.653 0 0 0-.491-.218l-1.614-.035v-.7a.66.66 0 0 0-.2-.5.7.7 0 0 0-.491-.218l-3.852-.077zm5.424 2.93-.126 6.371-7.073-.14.119-6.371h.912v.7a.7.7 0 0 0 .688.716l3.852.077a.7.7 0 0 0 .119 0h.147a1.151 1.151 0 0 0 .154-.1l.07-.049a.695.695 0 0 0 .211-.491v-.7zM33.4 24.737v1.4l-2.449-.049v-1.4z" transform="translate(-9.586 -8.696)"/>
            <path id="Rectangle_330" data-name="Rectangle 330" class="cls-2" transform="translate(29.212 17.935)" d="M0 0h7.073v1.403H0z"/>
            <path id="Rectangle_331" data-name="Rectangle 331" class="cls-2" transform="translate(29.212 20.062)" d="M0 0h4.947v1.403H0z"/>
            <path id="Rectangle_332" data-name="Rectangle 332" class="cls-2" transform="translate(29.212 22.181)" d="M0 0h7.073v1.403H0z"/>
        </g>
    </g>
</svg>
