<svg xmlns="http://www.w3.org/2000/svg" width="155" height="155">
    <defs>
        <filter id="Rectangle_515" x="0" y="0" width="155" height="155" filterUnits="userSpaceOnUse">
            <feOffset/>
            <feGaussianBlur stdDeviation="10.5" result="blur"/>
            <feFlood flood-opacity=".122"/>
            <feComposite operator="in" in2="blur"/>
            <feComposite in="SourceGraphic"/>
        </filter>
        <style>
            .cls-2{fill:#813772}
        </style>
    </defs>
    <g id="Group_5763" data-name="Group 5763" transform="translate(-1023 -789)">
        <g transform="translate(1023 789)" style="filter:url(#Rectangle_515)">
            <rect id="Rectangle_515-2" data-name="Rectangle 515" width="91" height="91" rx="10" transform="translate(32 32)" style="fill:#fff;stroke:transparent;stroke-miterlimit:10"/>
        </g>
        <g id="Placements" transform="translate(1083 849)">
            <g id="Group_5350" data-name="Group 5350">
                <g id="Group_5349" data-name="Group 5349" transform="translate(10.969 7.601)">
                    <path id="Path_1143" data-name="Path 1143" class="cls-2" d="M33.741 20.03c-.052-1.289-.2-2.57-.27-3.857A1.51 1.51 0 0 0 31.8 14.52a10.323 10.323 0 0 1-.762-.071l-.087-.019a6.589 6.589 0 0 0-.755-.1l-.37-.054a.61.61 0 0 0-.21 0l-.113-.011c0 .019-.006.038-.009.056a20.816 20.816 0 0 1-1.2 4.651c0-.016-.4-3.021-.4-3.038.037-.084.069-.164.106-.244a.228.228 0 0 1 .011-.025l.061-.137c.011-.016.02-.039.031-.055a.446.446 0 0 0 .066-.2.409.409 0 0 0-.046-.17l-.011-.027c0-.011-.005-.016-.011-.027A.268.268 0 0 0 28.08 15l-.005-.005c-.005-.011-.005-.016-.011-.022a.166.166 0 0 0-.123-.077h-.046a.072.072 0 0 0-.046-.011c-.072-.005-.256-.005-.487-.005s-.41 0-.481.005a.078.078 0 0 0-.046.011h-.051a.163.163 0 0 0-.123.077c0 .005-.005.011-.011.016l-.005.011a.268.268 0 0 0-.026.054c-.005.011-.005.016-.011.027l-.008.019a.465.465 0 0 0-.046.176.447.447 0 0 0 .067.2c.011.016.02.039.031.055.02.043.04.093.061.137l.015.033c.035.077.067.154.1.236.005.016-.365 2.868-.4 3.032q-.2-.484-.357-.981l-.465-1.68a26.294 26.294 0 0 1-.377-1.986c0-.019-.006-.038-.009-.056l-.113.011a.61.61 0 0 0-.21 0l-.37.054a6.822 6.822 0 0 0-.755.1l-.087.019c-.254.032-.508.057-.762.071a1.51 1.51 0 0 0-1.667 1.653c-.075 1.286-.218 2.568-.27 3.857a10.7 10.7 0 0 0 .023 1.2c.061.861.205 1.712.33 2.576a1.871 1.871 0 0 0 .32.845 1.74 1.74 0 0 0 .848.6 6.615 6.615 0 0 0 .738.194.9.9 0 0 1 .008.139c0 .414.1 2.107.239 4.1a.028.028 0 0 0 0 .007v.13h.008c.16 2.28.365 4.916.516 6.463.009.1.022.2.035.3a2 2 0 0 0 .57 1.546.007.007 0 0 0 .006.007 1.347 1.347 0 0 0 .741.319 2.169 2.169 0 0 0 .923-.109 7.152 7.152 0 0 0 1.069-.553 7.1 7.1 0 0 0 1.069.553 2.188 2.188 0 0 0 .923.109 1.345 1.345 0 0 0 .741-.319.008.008 0 0 0 .006-.007 2 2 0 0 0 .57-1.546c.013-.094.025-.195.035-.3.151-1.548.356-4.184.516-6.463h.005v-.13a.028.028 0 0 0 0-.007c.139-1.991.24-3.685.239-4.1a.9.9 0 0 1 .008-.139 6.744 6.744 0 0 0 .738-.194 1.788 1.788 0 0 0 .786-.522 1.82 1.82 0 0 0 .383-.926c.129-.9.279-1.778.336-2.673a10.251 10.251 0 0 0 .026-1.101z" transform="translate(-20.98 -14.27)"/>
                </g>
                <path id="Path_1144" data-name="Path 1144" class="cls-2" d="M27.409 3.412a2.116 2.116 0 0 1 1.4-1.905 3.373 3.373 0 0 1 2.442 0 2.116 2.116 0 0 1 1.4 1.905c.012.132 0 .262 0 .394a6.643 6.643 0 0 1-.6 2.668 3.678 3.678 0 0 1-.807 1.117 1.753 1.753 0 0 1-2.423 0 3.671 3.671 0 0 1-.807-1.117 6.633 6.633 0 0 1-.6-2.668 3.048 3.048 0 0 1-.005-.394z" transform="translate(-12.676 -1.278)"/>
                <path id="Path_1145" data-name="Path 1145" class="cls-2" d="M4.465 52.28c.02.067.088.133.223.2a13.538 13.538 0 0 0 1.807.6 27.353 27.353 0 0 0 6.205 1.188c2.812.184 5.632.422 8.446.386a40.288 40.288 0 0 0 11.887-1.664c.431-.138 2.332-.489 1.449-1.153a3.178 3.178 0 0 0-.621-.355 15.574 15.574 0 0 0-2.813-.709 37.637 37.637 0 0 0-4.285-.721 2.352 2.352 0 0 0-.263-.023c-.569-.007-.759-.259-.731-.851.057-1.179.018-1.188 1.194-1.06a27.493 27.493 0 0 1 6.6 1.395 12.636 12.636 0 0 1 2.715 1.381c1.06.721 1.032 1.725.032 2.544a10.417 10.417 0 0 1-4.031 1.793 34.866 34.866 0 0 1-7.5 1.182c-2.484.115-4.976.264-7.457.182a38.383 38.383 0 0 1-11.9-1.886 10.146 10.146 0 0 1-2.416-1.277 1.443 1.443 0 0 1-.02-2.55 9.5 9.5 0 0 1 3.983-1.764c1.934-.449 3.9-.737 5.86-1.088.408-.074.621.059.61.528-.039 1.584.221 1.326-1.162 1.511a30.686 30.686 0 0 0-6.635 1.474c-.213.077-1.274.413-1.177.737z" transform="translate(-2.23 -20.67)"/>
            </g>
        </g>
    </g>
</svg>
